# xmcd
#
# Track frame offsets: 
#        150
#        14992
#        30705
#        39541
#        48883
#        60031
#        71709
#        82844
#        99586
#        113658
#        125089
#        138600
#        148212
#        161919
#        175497
#        190240
#        201765
#        214848
#        223158
#
# Disc length: 3204 seconds
#
# Revision: 3
# Processed by: cddbd v1.5.2PL0 Copyright (c) Steve Scherf et al.
# Submitted via: ExactAudioCopy v0.99pb5
#
DISCID=250c8213
DTITLE=New Age - Ciao Italia
DYEAR=2000
DGENRE=New Age
TTITLE0=Arriverderci Roma
TTITLE1=A Sole Mio
TTITLE2=Sicilian Tarantella
TTITLE3=Woodpecker Song
TTITLE4=Finiculi Finicula
TTITLE5=Come Prima
TTITLE6=Ferryboat Serenade
TTITLE7=Speak Softly Love
TTITLE8=Volare
TTITLE9=Marechiare
TTITLE10=Santa Lucia
TTITLE11=Guaglione
TTITLE12=That's Amore
TTITLE13=Oh Marie
TTITLE14=Ciao Bambina
TTITLE15=Vieni Sul Mar
TTITLE16=Torna Sorrento
TTITLE17=Ciribiribin
TTITLE18=Ritorna a Me
EXTD=
EXTT0=
EXTT1=
EXTT2=
EXTT3=
EXTT4=
EXTT5=
EXTT6=
EXTT7=
EXTT8=
EXTT9=
EXTT10=
EXTT11=
EXTT12=
EXTT13=
EXTT14=
EXTT15=
EXTT16=
EXTT17=
EXTT18=
PLAYORDER=
